<svg xmlns="http://www.w3.org/2000/svg" xmlns:xlink="http://www.w3.org/1999/xlink">
  <defs>
      <rect id="outline"
           height="310.81366"
           width="222.23225"
           style="display:inline;fill:#ffffff;fill-opacity:1;stroke:#000000;stroke-width:0.99673247;stroke-miterlimit:4;stroke-dasharray:none;stroke-opacity:1"
           rx="10.6"
           ry="10.6" />

      <path id="club" d="m 0,0 c -9.77448,0.21226 -14.15742,11.21727 -6.91838,19.76329 1.04991,1.24653 1.15822,1.96187 -0.76457,0.76452 -4.87385,-3.25919 -14.21926,-1.11662 -14.69781,8.84728 -0.59115,12.27695 16.56285,15.81427 19.78371,2.75967 0.17004,-1.37736 1.28941,-1.34593 1.01952,0.60916 -0.29367,5.30641 -1.95083,10.26606 -4.22862,15.10253 3.83908,0 8.12955,0 11.62019,0 -2.27768,-4.83647 -3.93495,-9.79612 -4.22863,-15.10253 -0.26989,-1.95509 0.84949,-1.98652 1.01953,-0.60916 3.22086,13.0546 20.37486,9.51728 19.78371,-2.75967 -0.47845,-9.9639 -9.82396,-12.10647 -14.69781,-8.84728 -1.92278,1.19735 -1.81447,0.48201 -0.76457,-0.76452 7.23905,-8.54602 2.8561,-19.55102 -6.91829,-19.76329 0,-6e-5 0,5e-5 -0.01,0 z" />
      <g id="club-upside-down"       transform="rotate(180)"><use xlink:href="#club"/></g>
      <g id="club-small"             transform="scale(0.4)"><use xlink:href="#club"/></g>
      <g id="club-small-upside-down" transform="scale(0.4)"><use xlink:href="#club-upside-down"/></g>

      <path id="heart" d="m 0,50 c 0,0 -4.6663,-7.65547 -10.9609,-16.65626 -4.210998,-6.02326 -7.577598,-12.54533 -7.890598,-18.16309 -0.359,-6.41731 3.0392,-12.85538 9.191398,-13.16741 6.1485,-0.31185 8.6442,4.94803 9.6601,9.28461 1.01600005,-4.33658 3.5117,-9.59646 9.6602,-9.28461 6.1522,0.31203 9.5504,6.7501 9.1914,13.16741 -0.313,5.61776 -3.6796,12.13983 -7.8906,18.16309 -6.2946,9.00079 -10.961,16.65626 -10.961,16.65626 z" />
      <g id="heart-upside-down"       transform="rotate(180)"><use xlink:href="#heart"/></g>
      <g id="heart-small"             transform="scale(0.4)"><use xlink:href="#heart"/></g>
      <g id="heart-small-upside-down" transform="scale(0.4)"><use xlink:href="#heart-upside-down"/></g>

      <path id="spade" d="m 0,0 c -9.226,13.15712 -19.0977,20.72857 -19.2617,30.99333 -0.055,3.3239 1.7421,8.97342 7.3711,10.05478 3.652,0.69833 8.6801,-2.25748 8.7851,-8.26252 -0.016,-1.19555 1.2659,-1.16448 1.2539,0.47372 -0.172,4.73672 -1.6714,10.25156 -4.1914,14.74069 4.0287,0 8.0573,0 12.086,0 -2.52,-4.48913 -4.0194,-10.00397 -4.1914,-14.74069 -0.012,-1.6382 1.2699,-1.66927 1.2539,-0.47372 0.105,6.00504 5.1331,8.96085 8.7851,8.26252 5.629,-1.08136 7.4261,-6.73088 7.3711,-10.05478 -0.164,-10.26476 -10.0357,-17.83621 -19.2617,-30.99333 z" />
      <g id="spade-upside-down"       transform="rotate(180)"><use xlink:href="#spade"/></g>
      <g id="spade-small"             transform="scale(0.4)"><use xlink:href="#spade"/></g>
      <g id="spade-small-upside-down" transform="scale(0.4)"><use xlink:href="#spade-upside-down"/></g>

      <path id="diamond" d="m 0,50 c -5.1862,-8.5648 -10.6425,-16.8891 -17.4609,-24 6.8184,-7.1108 12.2747,-15.4351 17.4609,-24 5.1862,8.5649 10.6424,16.8892 17.4609,24 -6.8185,7.1109 -12.2747,15.4352 -17.4609,24 z" />
      <g id="diamond-upside-down"       transform="rotate(180)"><use xlink:href="#diamond"/></g>
      <g id="diamond-small"             transform="scale(0.4)"><use xlink:href="#diamond"/></g>
      <g id="diamond-small-upside-down" transform="scale(0.4)"><use xlink:href="#diamond-upside-down"/></g>

      <path id="pip-ace" d="m 0,0 0,-2.8127 2.68028,0 5.70981,-30.0817 3.24983,0 6.2897,30.0817 2.1644,0 0,2.8127 -7.37513,0 0,-2.8127 1.99038,0 -0.79484,-4.6099 -7.44035,0 -0.57473,4.6099 1.99028,0 0,2.8127 -7.88963,0 z m 13.27957,-10.7064 -3.2345,-16.1007 -3.02962,16.1007 6.26412,0 z" />
      <g id="pip-ace-upside-down" transform="rotate(180,10,0)"><use xlink:href="#pip-ace"/></g>
      <path id="pip-2" d="m 0,0 0.16008,-2.0284 c 0.50554,-6.2682 1.85071,-8.3828 9.48051,-14.9264 3.70419,-3.1719 4.91885,-4.737 5.08909,-6.5527 0.48512,-4.2827 -3.29971,-5.6194 -5.76486,-5.639 -3.19478,-0.029 -6.80938,1.9175 -5.08402,6.4418 l -3.58513,1.0743 c -0.72057,-4.2202 0.0209,-8.1792 3.37528,-9.9361 4.47982,-2.2909 10.22417,-1.3928 13.12457,2.2164 1.94936,2.4214 2.39476,5.7721 1.34905,8.3945 -3.0552,6.6989 -13.41895,9.6463 -14.27402,17.3973 l 11.45426,0 0,-4.3153 3.37527,0 0,7.9441 -18.70008,-0.07 z m 0,0" />
      <g id="pip-2-upside-down" transform="rotate(180,10,0)"><use xlink:href="#pip-2"/></g>
      <path id="pip-3" d="m 0,0 c 2.1951,3.5789 4.65,5.9361 8.4054,5.5315 5.6343,-0.3876 7.969,-6.3015 6.7901,-10.7575 -1.1403,-3.9979 -5.8058,-5.9452 -9.5151,-3.8138 -0.8755,0.5051 -1.7202,0.9175 -1.8854,0.9175 -0.389,0 -1.2697,-1.7542 -1.1493,-2.2893 2.4894,-3.6402 8.5346,-10.0175 8.5346,-10.0175 l -9.4447,0 0,4.2707 -3.62478,0 0,-7.6629 18.45938,0 0,2.6 c 0,0 -4.9458,5.1359 -6.5802,7.9487 4.0254,0.1475 7.2701,2.7018 8.4349,6.7401 0.6796,2.1262 0.375,6.9894 -0.5146,9.0855 -1.486,3.4941 -5.5448,6.329 -9.2552,6.4921 -6.2296,0.419 -9.5344,-3.9508 -11.18431,-7.1825 l 0,0 z m 0,0" />
      <g id="pip-3-upside-down" transform="rotate(180,10,0)"><use xlink:href="#pip-3"/></g>
      <path id="pip-4" d="m 0,0 0,-2.9054 2.6187,0 0,-4.7926 -13.099,0 0,-3.3817 14.1742,-21.8108 2.3154,0.012 0,21.7991 4.0101,0 0,3.3817 -4.0101,0 -0.076,4.7927 2.195,0 0,2.9092 -8.1288,0 z m 2.6187,-24.9055 -8.9992,13.8271 8.9992,0 0,-13.8271 z m 0,0" />
      <g id="pip-4-upside-down" transform="rotate(180,10,0)"><use xlink:href="#pip-4"/></g>
      <path id="pip-5" d="m 3.2204,-0.031 c 0.6143,1.9854 1.9736,4.0035 3.8194,4.5635 5.2144,1.2493 8.5692,-1.7231 9.6738,-5.1496 1.3401,-4.1563 -0.03,-9.9926 -3.6198,-12.0642 -2.9745,-1.7178 -7.3942,-0.2689 -9.4241,3.4057 l -2.2553,-1.4072 1.2108,-13.6958 14.7334,0 0,3.2373 -11.9393,0 -0.1894,5.7057 c 2.5702,-1.8406 6.5201,-1.821 9.0888,-0.53 4.8651,2.3667 7.1255,7.7474 6.1809,14.0888 -1.3106,6.3075 -4.2007,9.8816 -10.7195,10.392 -7.2509,0.067 -9.8109,-5.0178 -9.7801,-8.5149 l 0,0 z m 0,0" />
      <g id="pip-5-upside-down" transform="rotate(180,10,0)"><use xlink:href="#pip-5"/></g>
      <path id="pip-6" d="m 0,0 c -0.4045,-2.7685 -0.3943,-9.9256 -0.064,-12.0428 1.0201,-6.4861 3.4942,-9.4543 7.6386,-10.4229 4.0255,-0.9437 9.6803,0.1071 10.9206,5.528 l -3.365,0.065 c -1.8201,-3.6653 -6.4254,-2.6863 -9.0198,-1.0912 -2.0696,1.27 -3.0054,6.5735 -2.6047,6.8998 0,0 3.9141,-2.903 7.0001,-2.6889 6.5942,0.6879 9.3141,6.4143 9.0837,11.8209 -0.2099,6.5043 -2.2694,11.706 -9.2591,12.0519 -6.6455,-0.2572 -9.6905,-3.8846 -10.3304,-10.1201 l 0,0 z m 16.3896,-1.7178 c 0.036,-4.5124 -2.0095,-7.8945 -5.8838,-8.2652 -3.8706,-0.3733 -7.7758,3.4095 -7.5057,8.0094 0.2701,4.6195 2.0556,8.5054 6.7505,8.4845 5.0493,-0.02 6.6147,-5.0163 6.639,-8.2287 l 0,0 z m 0,0" />
      <g id="pip-6-upside-down" transform="rotate(180,10,0)"><use xlink:href="#pip-6"/></g>
      <path id="pip-7" d="m 0,0 c 2.1606,-11.4366 4.4606,-20.0224 10.4994,-29.3406 l -12.2747,0 0,4.011 -3.2588,0 0,-7.5612 17.9538,0 2.2144,3.5502 c -6.4138,7.0105 -12.2837,29.6721 -11.2444,29.3406 l -3.8897,0 z m 0,0" />
      <g id="pip-7-upside-down" transform="rotate(180,10,0)"><use xlink:href="#pip-7"/></g>
      <path id="pip-8" d="m 0,0 c 0.1561,-4.4159 1.751,-6.0723 4.8907,-8.3828 -2.5049,-1.8091 -3.5608,-4.4759 -3.3458,-6.7458 0.5158,-5.4967 4.755,-8.2444 9.3808,-8.1269 4.6295,0.1227 8.614,3.7971 8.925,7.7914 0.2701,3.4721 -0.7603,5.1482 -3.2204,6.9743 2.9196,2.4684 4.7845,4.0896 4.7154,8.4389 -0.069,4.3493 -3.7644,9.5249 -10.2051,9.6828 -6.4406,0.1579 -11.3006,-5.216 -11.1406,-9.6319 l 0,0 z m 17.9795,0.016 c 0.2751,-3.9982 -3.255,-6.6949 -7.2395,-6.7341 -3.8795,-0.042 -7.3495,3.2737 -7.3495,6.8634 0,3.8546 4.5144,5.9496 7.4301,5.9587 3.5443,0.016 6.9194,-2.6459 7.1589,-6.088 l 0,0 z m -1.2749,-14.3023 c 0.076,-3.3638 -3.0246,-5.7773 -6.2244,-5.6807 -2.8453,0.087 -5.8545,2.2595 -5.8596,5.0737 0,3.5231 3.4252,5.2826 6.3499,5.3505 2.6546,0.06 5.6739,-2.1995 5.7341,-4.7435 l 0,0 z m 0,0" />
      <g id="pip-8-upside-down" transform="rotate(180,10,0)"><use xlink:href="#pip-8"/></g>
      <path id="pip-9" d="m 0,0 c 1.1353,3.0333 3.4251,3.9313 5.8493,3.7368 4.3493,-0.3472 5.7944,-5.2156 6.1195,-9.5189 -1.6947,1.7999 -4.2405,2.7135 -6.41,2.6209 -6.9348,-0.372 -8.71,-5.9296 -8.774,-11.747 -0.1895,-4.905 1.8354,-8.4578 5.3092,-10.0893 1.8405,-0.8262 6.0541,-0.8262 7.9049,0.1527 4.2494,2.245 5.825,6.1228 5.5396,15.382 0,7.6172 -1.6153,16.4887 -9.7698,16.6819 -4.7089,0.6526 -8.289,-3.0176 -8.7741,-6.265 l 0,0 z m 8.805,-7.3469 c 1.4144,-0.8966 2.2105,-1.7385 2.8454,-2.998 0.5196,-1.0351 0.7,-1.5754 0.5503,-3.716 -0.3853,-5.5223 -3.2753,-8.6575 -7.4697,-8.0362 -2.3398,0.3524 -3.6197,1.6629 -4.3544,4.0997 -1.3555,4.5069 0.3648,9.7787 3.5851,10.9925 1.4489,0.5508 3.6888,0.3929 4.8433,-0.342 l 0,0 z m 0,0" />
      <g id="pip-9-upside-down" transform="rotate(180,10,0)"><use xlink:href="#pip-9"/></g>
      <path id="pip-10" d="m 10,10 3.1846,0 0,32.8938 -3.1846,0 z m 11.5,0 c -3.0656,0 -5.5295,2.8036 -5.5295,6.2859 l 0,20.3233 c 0,3.4823 2.4652,6.2846 5.5295,6.2846 l 1.7893,0 c 3.0655,0 5.5345,-2.8023 5.5345,-6.2846 l 0,-20.3233 c 0,-3.4823 -2.4703,-6.2859 -5.5345,-6.2859 l -1.7893,0 z m 0.9253,3.1103 c 1.8099,0 3.2652,1.39 3.2652,3.1286 l 0,20.5922 c 0,1.7385 -1.4553,3.1416 -3.2652,3.1416 -1.8098,0 -3.2702,-1.4031 -3.2702,-3.1416 l 0,-20.5922 c 0,-1.7373 1.4604,-3.1286 3.2702,-3.1286 l 0,0 z m 0,0" />
      <g id="pip-10-upside-down" transform="rotate(180,10,0)"><use xlink:href="#pip-10"/></g>

      <path id="face-jack" d="m 3.3544,0 c 0,0 0.081,3.32985 0.1105,10.3928 0.026,6.8587 0.1659,10.26054 -0.2713,12.21419 -1.1751,4.50176 -7.6987,4.52664 -8.9946,1.28979 -0.7534,-1.88294 -0.5529,-3.34687 -0.5876,-5.24291 l -3.6064,0 c 0,0 0.021,0.95459 0.026,2.12257 0.021,5.06218 1.6971,7.48328 5.6197,8.43784 4.0332,1.08944 8.7491,-0.57221 10.4257,-4.01857 0.9989,-1.96412 0.8845,-2.099 0.9089,-13.97536 0.015,-7.92324 0.135,-11.22035 0.135,-11.22035 l 3.0883,0 0,-3.45423 -10.2084,0 z m 0,0" />
      <g id="face-jack-upside-down" transform="rotate(180)"><use xlink:href="#face-jack"/></g>
      <path id="face-queen" d="m 10,35 -2.7455,0 0,-3.7475 2.7455,0 c 0,0 0.021,-2.0193 0.1,-5.5815 0.1703,-7.5929 0.3596,-8.7716 2.5548,-10.8614 4.3352,-4.13 11.595,-0.765 11.5092,5.4457 -0.1254,8.7651 -0.035,17.1216 -0.2905,18.3056 -0.4545,2.0845 -0.5005,2.202 -0.3149,2.5831 0.3801,0.7649 3.6594,1.0965 3.6594,0.8824 l 0,3.6914 c -2.5049,0.1945 -3.5455,-0.04 -5.5498,-1.4737 -1.2505,1.2088 -5.0596,2.4227 -8.0893,0.9947 -2.3039,-1.086 -4.0498,-3.8911 -3.5787,-10.2388 l 0,0 z m 9.2796,6.5422 c -1.3606,-1.9684 -3.6504,-4.6548 -5.8046,-5.6089 -0.1344,2.2634 0.061,4.1613 0.8551,5.182 1.2645,1.6251 3.3086,1.9971 4.9495,0.4269 l 0,0 z m 1.1289,-21.6498 c -1.0098,-2.8638 -3.6043,-3.835 -5.4999,-2.0428 -1.1852,1.1148 -1.3747,2.2882 -1.4002,8.662 -0.015,3.9316 -0.015,5.5841 -0.015,5.5841 3.6902,1.1983 7.1396,5.5058 7.1102,5.4496 l 0.09,-11.89 c 0.072,-1.9292 -0.024,-3.8611 -0.2842,-5.7629 l 0,0 z m 0,0"/>
      <g id="face-queen-upside-down" transform="rotate(180)"><use xlink:href="#face-queen"/></g>
      <path id="face-king" d="m 18,40 3.3049,0 -4.8549,-12.146 -3.7094,5.1307 0.026,7.0153 2.6048,0 0,3.618 -9.1799,0 0,-3.618 3.0245,0 0,-26.1206 -3.0245,0.012 0,-3.1625 9.3143,0 0,3.2695 -2.5703,0 -0.055,12.7307 8.1304,-12.8377 -2.8697,0 0,-3.1625 9.9096,0 0,3.1625 -2.6149,0 -6.6944,10.491 6.5548,15.623 2.9094,0 0.015,3.618 -10.1899,0 -0.031,-3.6232 z m 0,0" />
      <g id="face-king-upside-down" transform="rotate(180)"><use xlink:href="#face-king"/></g>
  </defs>
</svg>
